<svg width="744" height="138" viewBox="0 0 744 138" fill="none" xmlns="http://www.w3.org/2000/svg">
<path d="M185.8 137.999H31.6C14.2 137.999 0 123.799 0 106.399V37.2992C0 19.8992 14.2 5.69922 31.6 5.69922H185.8C203.2 5.69922 217.4 19.8992 217.4 37.2992V106.399C217.4 123.799 203.2 137.999 185.8 137.999ZM31.6 9.19922C16.1 9.19922 3.4 21.7992 3.4 37.2992V106.399C3.4 121.899 16 134.599 31.6 134.599H185.8C201.3 134.599 214 121.999 214 106.399V37.2992C214 21.7992 201.4 9.09922 185.8 9.09922H31.6V9.19922Z" fill="url(#paint0_linear)"/>
<path d="M129 91.9992C131.5 84.9992 129.5 80.1992 122.6 78.0992C120 77.2992 117.2 76.8992 114.4 76.6992C110 76.4992 105.5 76.5992 101.1 76.5992C100.7 76.5992 100.3 76.6992 99.8999 76.6992V100.199H101.4C104.9 100.199 108.4 100.299 111.9 100.199C114.3 100.099 116.7 99.9992 119.1 99.4992C123.5 98.5992 127.3 96.4992 129 91.9992Z" fill="url(#paint1_linear)"/>
<path d="M116.6 43.5991C114.8 43.0991 112.8 42.6991 110.9 42.5991C107.2 42.4991 103.6 42.5991 99.8999 42.5991V64.0991H101.4C105.8 64.0991 110.2 64.0991 114.6 63.9991C115.3 63.9991 116.1 63.6991 116.8 63.4991C121.5 61.8991 124.3 57.6991 124.2 52.3991C124 47.9991 121.5 44.9991 116.6 43.5991Z" fill="url(#paint2_linear)"/>
<path d="M107.2 114.5H100.3V128.3H107.2V114.5Z" fill="url(#paint3_linear)"/>
<path d="M99.8003 29.1H106.7V27.7C106.7 23.6 106.7 19.6 106.7 15.5H99.9003V29.1H99.8003Z" fill="url(#paint4_linear)"/>
<path d="M185.8 15.5H118.9V29.2C121.6 29.7 124.2 30.1 126.8 30.7C130.8 31.6 134.6 33 138.1 35.1C148 41 148.7 51.9 144.9 59.5C143.5 62.3 141.5 64.7 139 66.5C138.7 66.7 138.4 66.9 138.2 67.2C138.2 67.2 138.2 67.3 138.2 67.4C146.2 70.3 151.5 75.7 152.5 84.1C154 96.1 149.9 109.2 133.4 113C129.7 113.8 125.9 114 122.1 114.4C121.2 114.5 120.2 114.4 119.1 114.4V128.3H185.8C197.9 128.3 207.7 118.5 207.7 106.4V37.3C207.7 25.3 197.9 15.5 185.8 15.5Z" fill="url(#paint5_linear)"/>
<path d="M88.0001 114.4H65.9001V101.5C68.7001 101.5 71.4001 101.5 74.1001 101.5C77.4001 101.5 78.8001 100.2 78.8001 96.9C78.8001 79.8 78.8001 62.6 78.8001 45.5C78.8001 43.4 77.8001 42.2 75.7001 42C72.6001 41.8 69.5001 41.8 66.4001 41.7C65.8001 41.7 65.3001 41.7 64.6001 41.7V29.2H87.5001V15.5H31.5001C19.4001 15.5 9.6001 25.3 9.6001 37.4V106.5C9.6001 118.6 19.4001 128.4 31.5001 128.4H88.0001V114.4Z" fill="url(#paint6_linear)"/>
<path d="M713 7.69922H722.8C728 7.69922 732.3 9.49922 732.3 15.3992C732.3 18.8992 730.401 21.6992 726.901 22.2992L733.3 32.8992H726.6L721.3 22.7992H718.6V32.8992H713V7.69922ZM718.6 18.0992H721.901C723.901 18.0992 726.6 17.9992 726.6 15.2992C726.6 12.7992 724.3 12.3992 722.3 12.3992H718.701V18.0992H718.6Z" fill="#3A3133"/>
<path d="M723.2 40.5C712 40.5 702.9 31.4 702.9 20.2C702.9 9.1 712 0 723.2 0C734.4 0 743.5 9.1 743.5 20.3C743.4 31.4 734.3 40.5 723.2 40.5ZM723.2 1.9C713.1 1.9 704.9 10.1 704.9 20.2C704.9 30.3 713.1 38.5 723.2 38.5C733.3 38.5 741.5 30.3 741.5 20.2C741.5 10.2 733.3 1.9 723.2 1.9Z" fill="#3A3133"/>
<path d="M311 72.92C315.88 73.96 319.8 76.4 322.76 80.24C325.72 84 327.2 88.32 327.2 93.2C327.2 100.24 324.72 105.84 319.76 110C314.88 114.08 308.04 116.12 299.24 116.12H260V31.88H297.92C306.48 31.88 313.16 33.84 317.96 37.76C322.84 41.68 325.28 47 325.28 53.72C325.28 58.68 323.96 62.8 321.32 66.08C318.76 69.36 315.32 71.64 311 72.92ZM280.52 65.96H293.96C297.32 65.96 299.88 65.24 301.64 63.8C303.48 62.28 304.4 60.08 304.4 57.2C304.4 54.32 303.48 52.12 301.64 50.6C299.88 49.08 297.32 48.32 293.96 48.32H280.52V65.96ZM295.64 99.56C299.08 99.56 301.72 98.8 303.56 97.28C305.48 95.68 306.44 93.4 306.44 90.44C306.44 87.48 305.44 85.16 303.44 83.48C301.52 81.8 298.84 80.96 295.4 80.96H280.52V99.56H295.64Z" fill="#3A3133"/>
<path d="M347.022 42.2C343.422 42.2 340.462 41.16 338.142 39.08C335.902 36.92 334.782 34.28 334.782 31.16C334.782 27.96 335.902 25.32 338.142 23.24C340.462 21.08 343.422 20 347.022 20C350.542 20 353.422 21.08 355.662 23.24C357.982 25.32 359.142 27.96 359.142 31.16C359.142 34.28 357.982 36.92 355.662 39.08C353.422 41.16 350.542 42.2 347.022 42.2ZM357.222 49.16V116.12H336.702V49.16H357.222Z" fill="#3A3133"/>
<path d="M407.012 98.72V116.12H396.572C389.132 116.12 383.332 114.32 379.172 110.72C375.012 107.04 372.932 101.08 372.932 92.84V66.2H364.772V49.16H372.932V32.84H393.452V49.16H406.892V66.2H393.452V93.08C393.452 95.08 393.932 96.52 394.892 97.4C395.852 98.28 397.452 98.72 399.692 98.72H407.012Z" fill="#3A3133"/>
<path d="M413.762 74.24C413.762 66.08 415.602 58.76 419.282 52.28C422.962 45.72 427.962 40.6 434.282 36.92C440.682 33.24 447.762 31.4 455.522 31.4C464.642 31.4 472.602 33.6 479.402 38C486.202 42.4 491.162 48.64 494.282 56.72H481.202C478.882 51.68 475.522 47.8 471.122 45.08C466.802 42.36 461.602 41 455.522 41C449.682 41 444.442 42.36 439.802 45.08C435.162 47.8 431.522 51.68 428.882 56.72C426.242 61.68 424.922 67.52 424.922 74.24C424.922 80.88 426.242 86.72 428.882 91.76C431.522 96.72 435.162 100.56 439.802 103.28C444.442 106 449.682 107.36 455.522 107.36C461.602 107.36 466.802 106.04 471.122 103.4C475.522 100.68 478.882 96.8 481.202 91.76H494.282C491.162 99.76 486.202 105.96 479.402 110.36C472.602 114.68 464.642 116.84 455.522 116.84C447.762 116.84 440.682 115.04 434.282 111.44C427.962 107.76 422.962 102.68 419.282 96.2C415.602 89.72 413.762 82.4 413.762 74.24Z" fill="#3A3133"/>
<path d="M504.057 83C504.057 76.28 505.417 70.4 508.137 65.36C510.857 60.24 514.577 56.28 519.297 53.48C524.097 50.68 529.417 49.28 535.257 49.28C541.017 49.28 546.018 50.52 550.258 53C554.497 55.48 557.658 58.6 559.737 62.36V50.36H570.777V116.12H559.737V103.88C557.577 107.72 554.337 110.92 550.017 113.48C545.777 115.96 540.817 117.2 535.137 117.2C529.297 117.2 524.017 115.76 519.297 112.88C514.577 110 510.857 105.96 508.137 100.76C505.417 95.56 504.057 89.64 504.057 83ZM559.737 83.12C559.737 78.16 558.737 73.84 556.737 70.16C554.737 66.48 552.017 63.68 548.577 61.76C545.217 59.76 541.497 58.76 537.417 58.76C533.337 58.76 529.617 59.72 526.258 61.64C522.897 63.56 520.217 66.36 518.217 70.04C516.217 73.72 515.217 78.04 515.217 83C515.217 88.04 516.217 92.44 518.217 96.2C520.217 99.88 522.897 102.72 526.258 104.72C529.617 106.64 533.337 107.6 537.417 107.6C541.497 107.6 545.217 106.64 548.577 104.72C552.017 102.72 554.737 99.88 556.737 96.2C558.737 92.44 559.737 88.08 559.737 83.12Z" fill="#3A3133"/>
<path d="M597.751 61.04C599.671 57.28 602.391 54.36 605.911 52.28C609.511 50.2 613.871 49.16 618.991 49.16V60.44H616.111C603.871 60.44 597.751 67.08 597.751 80.36V116.12H586.831V50.36H597.751V61.04Z" fill="#3A3133"/>
<path d="M625.117 83C625.117 76.28 626.477 70.4 629.197 65.36C631.917 60.24 635.637 56.28 640.357 53.48C645.157 50.68 650.517 49.28 656.437 49.28C661.557 49.28 666.317 50.48 670.717 52.88C675.117 55.2 678.477 58.28 680.797 62.12V27.32H691.837V116.12H680.797V103.76C678.637 107.68 675.437 110.92 671.197 113.48C666.957 115.96 661.997 117.2 656.317 117.2C650.477 117.2 645.157 115.76 640.357 112.88C635.637 110 631.917 105.96 629.197 100.76C626.477 95.56 625.117 89.64 625.117 83ZM680.797 83.12C680.797 78.16 679.797 73.84 677.797 70.16C675.797 66.48 673.077 63.68 669.637 61.76C666.277 59.76 662.557 58.76 658.477 58.76C654.397 58.76 650.677 59.72 647.317 61.64C643.957 63.56 641.277 66.36 639.277 70.04C637.277 73.72 636.277 78.04 636.277 83C636.277 88.04 637.277 92.44 639.277 96.2C641.277 99.88 643.957 102.72 647.317 104.72C650.677 106.64 654.397 107.6 658.477 107.6C662.557 107.6 666.277 106.64 669.637 104.72C673.077 102.72 675.797 99.88 677.797 96.2C679.797 92.44 680.797 88.08 680.797 83.12Z" fill="#3A3133"/>
<defs>
<linearGradient id="paint0_linear" x1="0" y1="5.69922" x2="117.506" y2="198.79" gradientUnits="userSpaceOnUse">
<stop stop-color="#00B3EB"/>
<stop offset="1" stop-color="#035F99"/>
</linearGradient>
<linearGradient id="paint1_linear" x1="99.8999" y1="76.5742" x2="122.896" y2="105.85" gradientUnits="userSpaceOnUse">
<stop stop-color="#00B3EB"/>
<stop offset="1" stop-color="#035F99"/>
</linearGradient>
<linearGradient id="paint2_linear" x1="99.8999" y1="42.5547" x2="121.289" y2="66.682" gradientUnits="userSpaceOnUse">
<stop stop-color="#00B3EB"/>
<stop offset="1" stop-color="#035F99"/>
</linearGradient>
<linearGradient id="paint3_linear" x1="100.3" y1="114.5" x2="111.34" y2="120.02" gradientUnits="userSpaceOnUse">
<stop stop-color="#00B3EB"/>
<stop offset="1" stop-color="#035F99"/>
</linearGradient>
<linearGradient id="paint4_linear" x1="99.8003" y1="15.5" x2="110.775" y2="21.0682" gradientUnits="userSpaceOnUse">
<stop stop-color="#00B3EB"/>
<stop offset="1" stop-color="#035F99"/>
</linearGradient>
<linearGradient id="paint5_linear" x1="118.9" y1="15.5" x2="228.547" y2="101.818" gradientUnits="userSpaceOnUse">
<stop stop-color="#00B3EB"/>
<stop offset="1" stop-color="#035F99"/>
</linearGradient>
<linearGradient id="paint6_linear" x1="9.6001" y1="15.5" x2="115.387" y2="88.9608" gradientUnits="userSpaceOnUse">
<stop stop-color="#00B3EB"/>
<stop offset="1" stop-color="#035F99"/>
</linearGradient>
</defs>
</svg>
